<svg width="946" height="983" viewBox="0 0 946 983" fill="none" xmlns="http://www.w3.org/2000/svg">
<path fill-rule="evenodd" clip-rule="evenodd" d="M461.5 850.018C662.446 850.018 825.344 693.09 825.344 499.509C825.344 305.928 662.446 149 461.5 149C260.554 149 97.6553 305.928 97.6553 499.509C97.6553 693.09 260.554 850.018 461.5 850.018ZM461.5 771C617.52 771 744 649.445 744 499.5C744 349.555 617.52 228 461.5 228C305.48 228 179 349.555 179 499.5C179 649.445 305.48 771 461.5 771Z" fill="url(#paint0_linear_0_881)"/>
<path d="M776 325C881.5 496 807.019 728.277 619.237 822.845C431.454 917.413 217 799.5 154 687.5C81.0379 557.789 281.183 659.136 468.966 564.568C656.054 457.719 668.5 136.5 776 325Z" fill="url(#paint1_linear_0_881)"/>
<defs>
<linearGradient id="paint0_linear_0_881" x1="359.5" y1="605.5" x2="420.172" y2="149.089" gradientUnits="userSpaceOnUse">
<stop stop-color="#BFCCFA"/>
<stop offset="1" stop-color="#F1D9FD"/>
</linearGradient>
<linearGradient id="paint1_linear_0_881" x1="588.5" y1="617" x2="123.009" y2="697.05" gradientUnits="userSpaceOnUse">
<stop stop-color="#6F4FF3"/>
<stop offset="1" stop-color="#3513C2" stop-opacity="0"/>
</linearGradient>
</defs>
</svg>
