<svg width="233" height="40" viewBox="0 0 233 40" fill="none" xmlns="http://www.w3.org/2000/svg">
<g clip-path="url(#clip0_0_113)">
<mask id="mask0_0_113" style="mask-type:luminance" maskUnits="userSpaceOnUse" x="0" y="0" width="233" height="40">
<path d="M0 0H232.308V40H0V0Z" fill="white"/>
</mask>
<g mask="url(#mask0_0_113)">
<path d="M73.7673 39.3511H67.9065V33.5963L67.7288 32.0102V20.793C67.7288 18.6005 67.2 17.112 66.1465 16.3274C65.1308 15.5429 63.4723 15.1527 61.1662 15.1527C58.86 15.1527 57.2012 15.564 56.1854 16.3868C55.2081 17.2095 54.7215 18.5793 54.7215 20.4962V21.3783H48.6281V20.793C48.6281 18.6005 49.1569 16.6624 50.2108 14.9788C51.3065 13.2952 52.8088 11.9847 54.7215 11.0433C56.6765 10.0636 58.9404 9.57593 61.5215 9.57593C64.255 9.57593 66.5231 10.0848 68.3173 11.1026C70.1154 12.1204 71.4612 13.5284 72.3623 15.3308C73.2977 17.0908 73.7673 19.1857 73.7673 21.6158V39.3554V39.3511ZM57.0658 39.9365C54.4465 39.9365 52.2419 39.2707 50.4435 37.9389C48.6873 36.5691 47.8073 34.631 47.8073 32.1247C47.8073 30.4792 48.1796 29.1094 48.92 28.0153C49.7031 26.9169 50.8158 26.0178 52.2631 25.3138C53.71 24.6099 55.4662 24.1179 57.5354 23.8465L68.3173 22.3198V26.7854L58.4704 28.2528C56.7908 28.486 55.6185 28.838 54.9542 29.3087C54.29 29.7795 53.9596 30.5598 53.9596 31.6582C53.9596 32.7566 54.3492 33.6175 55.1319 34.1264C55.9527 34.6353 57.2815 34.8897 59.1181 34.8897C60.5227 34.8897 61.8727 34.6735 63.1631 34.2451C64.4919 33.7744 65.5835 33.011 66.4469 31.955C67.3058 30.8567 67.7373 29.3299 67.7373 27.3749L68.5585 34.8346L67.6189 34.7752C67.0731 35.6743 66.3115 36.5182 65.3338 37.3028C64.3946 38.0874 63.2435 38.7319 61.8769 39.2407C60.51 39.7115 58.9065 39.945 57.07 39.945L57.0658 39.9365Z" fill="#E2E2E2"/>
<path d="M106.963 39.3511H100.633V22.3749C100.633 19.7922 100.146 17.9305 99.1688 16.7939C98.1912 15.6192 96.3546 15.0339 93.6592 15.0339C91.9415 15.0339 90.5323 15.2884 89.4404 15.7973C88.3488 16.268 87.5281 17.0484 86.9777 18.1467C86.4319 19.2027 86.1569 20.6531 86.1569 22.4937H85.0442L84.515 15.6234H85.92C86.3515 14.5674 86.9946 13.5878 87.8538 12.6887C88.7127 11.7897 89.8088 11.0433 91.1373 10.458C92.5042 9.86854 94.1246 9.57593 95.9992 9.57593C98.5381 9.57593 100.612 10.0636 102.211 11.0433C103.815 12.0229 105.004 13.3715 105.787 15.0975C106.57 16.8194 106.959 18.7999 106.959 21.0305V39.3554L106.963 39.3511ZM86.1569 39.3511H79.8265V10.1612H85.6281V18.9144L86.1569 19.207V39.3511Z" fill="#E2E2E2"/>
<path d="M125.975 40C122.928 40 120.352 39.3553 118.24 38.0619C116.128 36.7685 114.508 34.9873 113.378 32.7184C112.286 30.4453 111.736 27.8032 111.736 24.788C111.736 21.7727 112.303 19.1306 113.437 16.8575C114.609 14.5462 116.268 12.765 118.418 11.514C120.567 10.2205 123.165 9.57593 126.212 9.57593C128.789 9.57593 131.057 10.0636 133.012 11.0433C134.967 12.0229 136.469 13.3927 137.523 15.1527C138.619 16.9126 139.165 18.9695 139.165 21.3189V21.849H132.893V21.497C132.893 19.3427 132.305 17.7778 131.138 16.7981C130.003 15.7803 128.226 15.2714 125.806 15.2714C122.992 15.2714 120.982 16.0729 119.772 17.6802C118.6 19.2451 118.016 21.5946 118.016 24.7286C118.016 27.8626 118.604 30.2884 119.772 31.8957C120.982 33.4605 122.996 34.2451 125.806 34.2451C128.226 34.2451 130.008 33.7574 131.138 32.7778C132.31 31.76 132.893 30.1951 132.893 28.0789V27.7269H139.165V28.257C139.165 30.5301 138.619 32.5657 137.523 34.3638C136.431 36.1238 134.887 37.5148 132.893 38.5327C130.938 39.5123 128.637 40 125.979 40H125.975Z" fill="#E2E2E2"/>
<path d="M171.117 39.3512H164.786V22.3749C164.786 19.7922 164.278 17.9305 163.263 16.7939C162.285 15.6192 160.47 15.0339 157.813 15.0339C155.155 15.0339 153.378 15.6022 152.13 16.7388C150.92 17.8372 150.315 19.7752 150.315 22.553H149.202L149.142 15.0339H150.547C151.017 14.1348 151.66 13.274 152.481 12.4512C153.34 11.5903 154.415 10.9033 155.705 10.3944C157.034 9.84735 158.557 9.57165 160.275 9.57165C162.852 9.57165 164.926 10.0806 166.487 11.0984C168.091 12.078 169.259 13.4266 170.003 15.1527C170.748 16.8745 171.117 18.8125 171.117 20.9669V39.3512ZM150.31 39.3512H143.98V0H150.31V39.3512Z" fill="#E2E2E2"/>
<path d="M190.598 39.9407C187.628 39.9407 185.051 39.313 182.863 38.0619C180.675 36.7685 178.995 34.9873 177.823 32.7184C176.651 30.4071 176.067 27.7439 176.067 24.7286C176.067 21.7133 176.655 19.0712 177.823 16.7981C178.995 14.525 180.675 12.765 182.863 11.514C185.051 10.2205 187.628 9.57593 190.598 9.57593C193.568 9.57593 196.108 10.2205 198.219 11.514C200.368 12.765 202.01 14.5293 203.14 16.7981C204.312 19.0712 204.896 21.7133 204.896 24.7286C204.896 27.7439 204.308 30.4071 203.14 32.7184C202.006 34.9915 200.364 36.7727 198.219 38.0619C196.108 39.313 193.568 39.9407 190.598 39.9407ZM190.598 34.3002C193.645 34.3002 195.773 33.5369 196.988 32.0102C198.198 30.4453 198.803 28.0153 198.803 24.7286C198.803 21.4419 198.198 19.0331 196.988 17.5064C195.777 15.9797 193.649 15.2163 190.598 15.2163C187.547 15.2163 185.364 15.9797 184.153 17.5064C182.943 19.0331 182.338 21.4419 182.338 24.7286C182.338 28.0153 182.943 30.4453 184.153 32.0102C185.364 33.5369 187.513 34.3002 190.598 34.3002Z" fill="#E2E2E2"/>
<path d="M215.957 39.3511H209.627V9.98304H215.428V18.1467L215.957 18.4394V39.3469V39.3511ZM215.957 20.3223H214.493V14.6268H215.725C216.313 13.257 217.269 12.0823 218.598 11.1026C219.965 10.0848 221.725 9.57593 223.874 9.57593C226.024 9.57593 227.585 10.0254 228.796 10.9287C230.048 11.8278 230.945 13.0237 231.491 14.5123C232.037 16.0009 232.312 17.6633 232.312 19.5038V21.4419H225.982V20.2672C225.982 18.3079 225.647 16.9381 224.983 16.1578C224.319 15.3774 223.07 14.983 221.234 14.983C219.398 14.983 217.95 15.3944 217.134 16.2171C216.351 17.0017 215.962 18.3715 215.962 20.3265L215.957 20.3223Z" fill="#E2E2E2"/>
<path fill-rule="evenodd" clip-rule="evenodd" d="M6.02562 25.916C4.43035 25.916 2.89856 25.2672 1.76875 24.1222C0.63895 22.9728 0 21.4207 0 19.8007V6.11535C0 4.49535 0.63895 2.93893 1.76875 1.79389C2.89856 0.648854 4.42612 0 6.02562 0H19.5071C21.1023 0 22.6341 0.648854 23.7639 1.79389C24.8937 2.93893 25.5285 4.49535 25.5327 6.11535V19.1518L21.9359 21.2595H34.1691C35.4047 21.2595 36.5895 21.76 37.4654 22.6463C38.3413 23.5327 38.8323 24.7371 38.8323 25.9924V34.6777C38.8323 35.933 38.3371 37.1374 37.4654 38.0237C36.5895 38.91 35.4047 39.4104 34.1691 39.4104H25.6088C24.3733 39.4104 23.1885 38.91 22.3125 38.0237C21.4366 37.1374 20.9458 35.933 20.9458 34.6777V28.028L24.5552 25.9118H6.02562M20.9458 21.2553V4.6565H4.58692V21.2595H20.9458V21.2553ZM34.1691 25.9118H25.5327V34.6777C25.5327 34.6777 25.5412 34.7158 25.5581 34.7328C25.5708 34.7455 25.5919 34.754 25.6088 34.7583H34.1691C34.1691 34.7583 34.2072 34.7498 34.2199 34.7328C34.2326 34.7201 34.241 34.6989 34.2453 34.6777V25.9881C34.2453 25.9881 34.2368 25.95 34.2199 25.9372C34.2072 25.9203 34.186 25.9118 34.1691 25.9118Z" fill="#E2E2E2"/>
</g>
</g>
<defs>
<clipPath id="clip0_0_113">
<rect width="232.308" height="40" fill="white"/>
</clipPath>
</defs>
</svg>
