<svg width="126" height="40" viewBox="0 0 126 40" fill="none" xmlns="http://www.w3.org/2000/svg">
<path d="M1.13989 17.6934C1.13989 15.3596 1.57409 13.3108 2.44247 11.5469C3.338 9.78298 4.5456 8.42613 6.06527 7.47633C7.58494 6.52653 9.28101 6.05164 11.1535 6.05164C12.7545 6.05164 14.1521 6.37727 15.3461 7.02856C16.5673 7.67985 17.5035 8.53467 18.1548 9.59302V6.37727H25.1154V29.0909H18.1548V25.8753C17.4764 26.9337 16.5266 27.7884 15.3054 28.4397C14.1114 29.0909 12.7139 29.4166 11.1128 29.4166C9.26743 29.4166 7.58494 28.9417 6.06527 27.9919C4.5456 27.0149 3.338 25.6446 2.44247 23.8808C1.57409 22.0897 1.13989 20.0271 1.13989 17.6934ZM18.1548 17.7341C18.1548 15.9974 17.6664 14.6269 16.6894 13.6229C15.7396 12.6188 14.5727 12.1168 13.1887 12.1168C11.8048 12.1168 10.6243 12.6188 9.64736 13.6229C8.69756 14.5998 8.22267 15.9567 8.22267 17.6934C8.22267 19.4302 8.69756 20.8142 9.64736 21.8453C10.6243 22.8495 11.8048 23.3515 13.1887 23.3515C14.5727 23.3515 15.7396 22.8495 16.6894 21.8453C17.6664 20.8413 18.1548 19.4709 18.1548 17.7341Z" fill="#E2E2E2"/>
<path d="M37.1118 9.59302C37.7903 8.53467 38.7265 7.67985 39.9205 7.02856C41.1145 6.37727 42.5122 6.05164 44.1132 6.05164C45.9856 6.05164 47.6818 6.52653 49.2014 7.47633C50.7211 8.42613 51.9151 9.78298 52.7834 11.5469C53.6791 13.3108 54.1267 15.3596 54.1267 17.6934C54.1267 20.0271 53.6791 22.0897 52.7834 23.8808C51.9151 25.6446 50.7211 27.0149 49.2014 27.9919C47.6818 28.9417 45.9856 29.4166 44.1132 29.4166C42.5392 29.4166 41.1416 29.0909 39.9205 28.4397C38.7265 27.7884 37.7903 26.9471 37.1118 25.916V39.9186H30.1512V6.37727H37.1118V9.59302ZM47.044 17.6934C47.044 15.9567 46.5556 14.5998 45.5785 13.6229C44.6289 12.6188 43.4483 12.1168 42.0372 12.1168C40.6532 12.1168 39.4727 12.6188 38.4958 13.6229C37.546 14.6269 37.0711 15.9974 37.0711 17.7341C37.0711 19.4709 37.546 20.8413 38.4958 21.8453C39.4727 22.8495 40.6532 23.3515 42.0372 23.3515C43.4212 23.3515 44.6016 22.8495 45.5785 21.8453C46.5556 20.8142 47.044 19.4302 47.044 17.6934Z" fill="#E2E2E2"/>
<path d="M56.3945 17.6934C56.3945 15.3596 56.8287 13.3108 57.6971 11.5469C58.5927 9.78298 59.8002 8.42613 61.32 7.47633C62.8396 6.52653 64.5356 6.05164 66.4082 6.05164C68.0093 6.05164 69.4067 6.37727 70.6007 7.02856C71.822 7.67985 72.7582 8.53467 73.4094 9.59302V6.37727H80.3702V29.0909H73.4094V25.8753C72.7311 26.9337 71.7813 27.7884 70.56 28.4397C69.366 29.0909 67.9685 29.4166 66.3674 29.4166C64.522 29.4166 62.8396 28.9417 61.32 27.9919C59.8002 27.0149 58.5927 25.6446 57.6971 23.8808C56.8287 22.0897 56.3945 20.0271 56.3945 17.6934ZM73.4094 17.7341C73.4094 15.9974 72.9209 14.6269 71.944 13.6229C70.9942 12.6188 69.8274 12.1168 68.4434 12.1168C67.0594 12.1168 65.8789 12.6188 64.902 13.6229C63.9522 14.5998 63.4773 15.9567 63.4773 17.6934C63.4773 19.4302 63.9522 20.8142 64.902 21.8453C65.8789 22.8495 67.0594 23.3515 68.4434 23.3515C69.8274 23.3515 70.9942 22.8495 71.944 21.8453C72.9209 20.8413 73.4094 19.4709 73.4094 17.7341Z" fill="#E2E2E2"/>
<path d="M98.0653 23.1887V29.0909H94.5238C92.0002 29.0909 90.0328 28.4804 88.6217 27.2593C87.2106 26.0109 86.5049 23.9893 86.5049 21.194V12.1575H83.7369V6.37726H86.5049V0.841309H93.4657V6.37726H98.0246V12.1575H93.4657V21.2755C93.4657 21.9538 93.6284 22.4424 93.954 22.7409C94.2797 23.0395 94.8224 23.1887 95.5822 23.1887H98.0653Z" fill="#E2E2E2"/>
<path d="M100.559 17.6934C100.559 15.3596 100.993 13.3108 101.861 11.5469C102.757 9.78298 103.964 8.42613 105.484 7.47633C107.003 6.52653 108.7 6.05164 110.572 6.05164C112.173 6.05164 113.571 6.37727 114.765 7.02856C115.986 7.67985 116.922 8.53467 117.573 9.59302V6.37727H124.534V29.0909H117.573V25.8753C116.895 26.9337 115.945 27.7884 114.724 28.4397C113.53 29.0909 112.132 29.4166 110.531 29.4166C108.686 29.4166 107.003 28.9417 105.484 27.9919C103.964 27.0149 102.757 25.6446 101.861 23.8808C100.993 22.0897 100.559 20.0271 100.559 17.6934ZM117.573 17.7341C117.573 15.9974 117.085 14.6269 116.108 13.6229C115.158 12.6188 113.991 12.1168 112.607 12.1168C111.223 12.1168 110.043 12.6188 109.066 13.6229C108.116 14.5998 107.641 15.9567 107.641 17.6934C107.641 19.4302 108.116 20.8142 109.066 21.8453C110.043 22.8495 111.223 23.3515 112.607 23.3515C113.991 23.3515 115.158 22.8495 116.108 21.8453C117.085 20.8413 117.573 19.4709 117.573 17.7341Z" fill="#E2E2E2"/>
</svg>
