<svg width="143" height="40" viewBox="0 0 143 40" fill="none" xmlns="http://www.w3.org/2000/svg">
<g clip-path="url(#clip0_0_115)">
<path fill-rule="evenodd" clip-rule="evenodd" d="M120.265 33.8403C119.683 33.6549 119.176 33.4403 118.747 33.1958L116.724 38.6194C117.628 39.0239 118.567 39.3483 119.528 39.5889C120.508 39.8333 121.581 39.9555 122.747 39.9555C124.585 39.9555 126.188 39.5708 127.552 38.8048C128.917 38.0389 129.998 36.718 130.793 34.85L142.014 8.27638H133.738L129.232 21.3764L124.681 8.27638H115.943L125.462 29.7444L124.175 32.6451C123.927 33.1965 123.627 33.5771 123.276 33.7917C122.924 34.0069 122.458 34.1139 121.874 34.1139C121.385 34.1139 120.849 34.025 120.265 33.8403ZM107.401 20.666C107.86 20.6215 108.322 20.5805 108.781 20.5514V24.7354C108.381 25.0416 107.941 25.2895 107.472 25.4715C106.994 25.6562 106.469 25.7451 105.884 25.7451C105.089 25.7451 104.467 25.5417 104.023 25.1271C103.579 24.7132 103.353 24.184 103.353 23.5403C103.353 22.9264 103.553 22.368 103.953 21.8611C104.353 21.3576 105.026 21.025 105.976 20.8729C106.448 20.7828 106.923 20.7138 107.401 20.666ZM109.287 28.9646L109.931 30.7139H116.69V16.5521C116.69 13.5479 115.817 11.3319 114.067 9.90763C112.322 8.47916 109.976 7.76874 107.035 7.76874C104.919 7.76874 103.102 8.07638 101.585 8.69027C100.081 9.29347 98.6897 10.148 97.4715 11.2174L101.056 15.2167C101.752 14.6606 102.517 14.1965 103.331 13.8361C104.124 13.4981 104.978 13.327 105.84 13.3333C106.635 13.3333 107.327 13.5479 107.908 13.9771C108.489 14.4062 108.781 15.0792 108.781 16.0007V16.5521C108.005 16.5879 107.231 16.641 106.458 16.7111C105.543 16.7971 104.631 16.9129 103.724 17.0583C102.686 17.2007 101.668 17.4629 100.69 17.8396C99.7389 18.2055 98.9028 18.6826 98.1819 19.2632C97.4695 19.8364 96.89 20.5574 96.4833 21.3764C96.0694 22.2049 95.8618 23.1743 95.8618 24.2764C95.8618 25.3493 96.0431 26.3 96.4132 27.125C96.769 27.9388 97.2935 28.6679 97.9521 29.2639C98.6111 29.8632 99.3875 30.3146 100.276 30.6215C101.163 30.9243 102.129 31.0798 103.172 31.0798C104.552 31.0798 105.762 30.8729 106.806 30.4583C107.845 30.0479 108.674 29.5486 109.287 28.9639V28.9646ZM60.1021 2.60763L70.0465 30.7132H76.1618L79.6542 18.941L83.1951 30.7132H89.3549L97.3125 8.27568H89.0806L85.7694 20.184L82.3215 8.27499H77.0792L73.6313 20.1847L67.8826 2.60832H60.1021V2.60763ZM45.859 8.27499V13.884H49.0326V23.7243C49.0326 24.8562 49.1479 25.8812 49.3771 26.8028C49.6063 27.7236 49.9986 28.5042 50.5507 29.1479C51.1014 29.7917 51.8299 30.2917 52.7326 30.643C53.6389 30.9944 54.7493 31.1722 56.066 31.1722C57.6313 31.1722 59.0035 30.9868 60.184 30.6208C61.3639 30.2507 62.459 29.718 63.4688 29.0111L61.4007 24.1354C60.978 24.4577 60.523 24.7353 60.0431 24.9639C59.5505 25.2067 59.0089 25.3333 58.4597 25.334C57.875 25.334 57.5014 25.1194 57.3313 24.6903C57.1646 24.2611 57.0799 23.6618 57.0799 22.8958V13.8847H62.4771L60.491 8.27568H57.0799V2.61943H49.0333V8.27568H45.859V8.27499ZM37.4243 13.9062C38.0528 14.5937 38.4118 15.5382 38.5042 16.7361H31.516C31.6382 15.5708 32.0451 14.6347 32.7333 13.9285C33.425 13.2257 34.2278 12.8701 35.1486 12.8701C36.0368 12.8701 36.7951 13.2174 37.4243 13.9062ZM32.7813 24.1611C31.9674 23.4104 31.5313 22.3597 31.4681 21.009H46.0445C46.0146 16.5035 45.0118 13.1701 43.0326 11.009C41.057 8.84929 38.3972 7.76874 35.0563 7.76874C33.4326 7.76874 31.9229 8.02777 30.5285 8.5493C29.1333 9.07082 27.9313 9.8368 26.9174 10.85C25.9035 11.8604 25.1083 13.0924 24.5278 14.55C23.9431 16.0076 23.6542 17.668 23.6542 19.5403C23.6542 21.4715 23.9576 23.1625 24.5715 24.6201C25.1861 26.0736 26.0146 27.2868 27.0576 28.2493C28.0972 29.2187 29.3146 29.9472 30.7132 30.4354C32.1076 30.9243 33.5986 31.1715 35.1931 31.1715C36.5104 31.1715 37.6979 31.0646 38.7556 30.85C39.8139 30.6354 40.75 30.3285 41.5604 29.9292C42.3297 29.5594 43.0554 29.1052 43.7243 28.575C44.3535 28.068 44.9118 27.509 45.4042 26.8951L40.4833 23.0326C39.8653 23.7986 39.2 24.3687 38.482 24.734C37.7604 25.1049 36.8951 25.2861 35.8847 25.2861C34.6278 25.2861 33.5917 24.9125 32.7806 24.1611H32.7813ZM9.05556 25.2201C8.73334 25.1715 8.4007 25.1055 8.0639 25.009V14.1583C8.43404 14.0361 8.80001 13.9361 9.17015 13.8625C9.56322 13.7827 9.96352 13.7441 10.3646 13.7472C11.6521 13.7472 12.7181 14.2062 13.5611 15.1236C14.4014 16.0451 14.8229 17.4694 14.8229 19.4007C14.8229 21.3944 14.3938 22.8743 13.5354 23.8403C12.6771 24.8055 11.5597 25.2861 10.1799 25.2861C9.7507 25.2861 9.37709 25.2639 9.05487 25.2201H9.05556ZM10.0208 7.92846C9.35912 8.02975 8.70524 8.17686 8.0639 8.36874V0.0444336H0.0208435V29.3778C1.39723 29.9 2.89932 30.3361 4.52362 30.6882C6.1514 31.043 7.97501 31.2208 9.99515 31.2208C11.8333 31.2208 13.5278 30.9729 15.0785 30.4847C16.6243 29.9924 17.9674 29.2486 19.0993 28.25C20.2354 27.2583 21.116 25.993 21.7451 24.4583C22.3736 22.9264 22.6882 21.1174 22.6882 19.0347C22.6882 17.4694 22.459 16.0007 21.9965 14.6208C21.5382 13.241 20.8715 12.0458 19.9986 11.0326C19.1257 10.0222 18.0417 9.2236 16.7542 8.64235C15.4667 8.0618 14.0125 7.76943 12.3889 7.76943C11.4972 7.76943 10.7083 7.82082 10.0208 7.92846Z" fill="#E2E2E2"/>
</g>
<defs>
<clipPath id="clip0_0_115">
<rect width="142.014" height="40" fill="white"/>
</clipPath>
</defs>
</svg>
