<svg width="190" height="40" viewBox="0 0 190 40" fill="none" xmlns="http://www.w3.org/2000/svg">
<g clip-path="url(#clip0_0_116)">
<path d="M1.02564 30.359C0.769049 30.3833 0.512732 30.31 0.307689 30.1539C0.198979 30.0483 0.115004 29.92 0.0618017 29.7782C0.00859964 29.6363 -0.0125077 29.4844 -2.92924e-06 29.3334V3.07697C-2.92924e-06 2.76927 -2.91574e-06 2.56415 0.307689 2.35902C0.512818 2.15389 0.717946 2.05133 1.02564 2.05133H13.0256C15.282 2.05133 17.1282 2.35902 18.5641 3.07697C20 3.69235 21.0256 4.61543 21.641 5.8462C22.359 6.9744 22.6667 8.4103 22.6667 9.94876C22.6667 10.9744 22.5641 11.7949 22.1538 12.6154C21.5546 13.8991 20.5439 14.9459 19.282 15.5898C20.3077 16 21.3333 16.8206 22.0513 17.9488C22.8718 19.077 23.2821 20.4103 23.2821 21.9488C23.2821 23.5898 22.8718 25.1283 22.2564 26.359C21.4501 27.7288 20.2288 28.8065 18.7692 29.4359C17.3333 30.0513 15.4872 30.4616 13.4359 30.4616H1.02564V30.359ZM6.46154 25.6411H12.6154C13.9487 25.6411 14.9744 25.3334 15.6923 24.6154C16.3077 23.7949 16.7179 22.9744 16.7179 21.9488C16.7179 20.9231 16.3077 19.8975 15.5897 19.2821C14.8718 18.5641 13.9487 18.2565 12.6154 18.2565H6.46154V25.6411ZM6.46154 13.5385H12.2051C13.5385 13.5385 14.4615 13.2308 15.0769 12.5129C15.6923 12 16.1026 11.1795 16.1026 10.1539C16.1119 9.70997 16.0251 9.26928 15.8481 8.86208C15.671 8.45489 15.408 8.09083 15.0769 7.79492C14.4615 7.07697 13.5385 6.76927 12.2051 6.76927H6.46154V13.5385ZM28.8205 30.359C28.5986 30.359 28.3827 30.287 28.2051 30.1539C28.0964 30.0483 28.0124 29.92 27.9592 29.7782C27.906 29.6363 27.8849 29.4844 27.8974 29.3334V10.359C27.8974 10.0513 27.8974 9.8462 28.2051 9.64107C28.3077 9.43594 28.6154 9.33338 28.8205 9.33338H32.9231C33.2308 9.33338 33.4359 9.43594 33.641 9.64107C33.8461 9.8462 33.8462 10.0513 33.8462 10.359V29.3334C33.8462 29.6411 33.8461 29.9488 33.641 30.1539C33.436 30.31 33.1797 30.3833 32.9231 30.359H28.8205ZM28.7179 6.15389C28.4474 6.15004 28.1894 6.03944 28 5.8462C27.8438 5.64116 27.7706 5.38484 27.7949 5.12825V1.8462C27.7949 1.53851 27.7949 1.33338 28 1.12825C28.2051 0.923121 28.4103 0.820557 28.7179 0.820557H32.9231C33.2308 0.820557 33.5385 0.923121 33.7436 1.12825C33.9487 1.33338 34.0513 1.53851 34.0513 1.8462V5.12825C34.0513 5.43594 33.9487 5.64107 33.7436 5.8462C33.638 5.95491 33.5097 6.03888 33.3678 6.09209C33.226 6.14529 33.0741 6.16639 32.9231 6.15389H28.7179ZM48.8205 39.2821C46.7692 39.2821 45.2308 38.9744 43.8974 38.4616C42.7257 38.0631 41.6449 37.4355 40.7179 36.6154C40.0287 35.9778 39.4711 35.2112 39.0769 34.359C38.7692 33.6411 38.5641 33.1283 38.5641 32.718C38.5641 32.4103 38.5641 32.2052 38.8718 32C39.0769 31.7949 39.282 31.6924 39.5897 31.6924H43.8974C44.1026 31.6924 44.3077 31.6924 44.5128 31.8975C44.7179 31.8975 44.8205 32.2052 44.9231 32.5129L45.5385 33.5385L46.5641 34.4616C47.0769 34.6667 47.7949 34.7693 48.6154 34.7693C49.641 34.7693 50.359 34.6667 50.9744 34.359C51.5897 34.1539 52 33.6411 52.3077 33.0257C52.7179 32.4103 52.8205 31.4872 52.8205 30.359V27.6924C52.2051 28.4103 51.3846 28.9231 50.359 29.4359C48.0188 30.3562 45.417 30.3562 43.0769 29.4359C42.0588 29.032 41.1467 28.4005 40.4103 27.5898C39.6662 26.6821 39.1086 25.6365 38.7692 24.5129C38.3857 23.2482 38.1786 21.9367 38.1538 20.6154V18.5641C38.1538 17.1283 38.4615 15.7949 38.7692 14.6667C39.1795 13.5385 39.7949 12.5129 40.4103 11.5898C41.1282 10.7693 42.0513 10.1539 43.0769 9.64107C44.1026 9.23081 45.3333 8.92312 46.7692 8.92312C47.9953 8.90715 49.2082 9.17687 50.3119 9.71094C51.4157 10.245 52.3799 11.0287 53.1282 12V10.2565C53.1282 10.0513 53.2308 9.74363 53.4359 9.53851C53.641 9.33338 53.8462 9.23081 54.1538 9.23081H58.0513C58.359 9.23081 58.5641 9.33338 58.7692 9.53851C58.9744 9.74363 59.0769 10.0513 59.0769 10.2565V29.7436C59.0769 31.7949 58.7692 33.4359 58.0513 34.8718C57.2298 36.2918 55.9703 37.4073 54.4615 38.0513C53.0256 38.7693 51.0769 39.1795 48.8205 39.1795V39.2821ZM48.6154 25.3334C49.641 25.3334 50.359 25.1283 50.9744 24.718C51.5897 24.3077 52 23.6924 52.3077 23.077C52.6198 22.364 52.7938 21.5984 52.8205 20.8206C52.8948 19.9675 52.8948 19.1095 52.8205 18.2565C52.8205 17.5385 52.6154 16.8206 52.3077 16.2052C52.1026 15.4872 51.5897 14.8718 50.9744 14.4616C50.359 14.0513 49.641 13.8462 48.6154 13.8462C47.5897 13.8462 46.7692 14.0513 46.2564 14.4616C45.641 14.9744 45.2308 15.4872 44.9231 16.2052C44.6154 16.9231 44.5128 17.7436 44.4103 18.6667V20.5129C44.4103 21.4359 44.6154 22.2565 44.9231 22.9744C45.2308 23.6924 45.641 24.3077 46.2564 24.718C46.9622 25.1574 47.7849 25.372 48.6154 25.3334ZM65.2308 30.359C64.9742 30.3833 64.7179 30.31 64.5128 30.1539C64.4041 30.0483 64.3201 29.92 64.2669 29.7782C64.2137 29.6363 64.1926 29.4844 64.2051 29.3334V10.359C64.2051 10.0513 64.3077 9.8462 64.5128 9.64107C64.7179 9.43594 64.9231 9.33338 65.2308 9.33338H69.3333C69.5385 9.33338 69.8462 9.43594 69.9487 9.64107C70.1538 9.8462 70.2564 10.0513 70.2564 10.359V29.3334C70.2564 29.6411 70.2564 29.9488 69.9487 30.1539C69.7437 30.31 69.4874 30.3833 69.2308 30.359H65.1282H65.2308ZM65.1282 6.15389C64.8577 6.15004 64.5996 6.03944 64.4103 5.8462C64.217 5.65683 64.1064 5.39878 64.1026 5.12825V1.8462C64.1026 1.53851 64.2051 1.33338 64.4103 1.12825C64.6154 0.923121 64.8205 0.820557 65.1282 0.820557H69.3333C69.641 0.820557 69.8462 0.923121 70.0513 1.12825C70.2564 1.33338 70.359 1.53851 70.359 1.8462V5.12825C70.359 5.43594 70.359 5.64107 70.0513 5.8462C69.8619 6.03944 69.6039 6.15004 69.3333 6.15389H65.1282ZM76.8205 30.359C76.5639 30.3833 76.3076 30.31 76.1026 30.1539C75.9939 30.0483 75.9099 29.92 75.8567 29.7782C75.8035 29.6363 75.7824 29.4844 75.7949 29.3334V3.07697C75.7949 2.76927 75.7949 2.56415 76.1026 2.35902C76.3077 2.15389 76.5128 2.05133 76.8205 2.05133H88.8205C91.0769 2.05133 92.9231 2.35902 94.2564 3.07697C95.6923 3.69235 96.8205 4.61543 97.4359 5.8462C98.1538 6.9744 98.4615 8.4103 98.4615 9.94876C98.4615 10.9744 98.359 11.7949 97.9487 12.6154C97.3495 13.8991 96.3388 14.9459 95.0769 15.5898C96.1026 16 97.1282 16.8206 97.8462 17.9488C98.6667 19.077 99.0769 20.4103 99.0769 21.9488C99.0769 23.5898 98.6667 25.1283 97.9487 26.359C97.1691 27.7126 95.9857 28.7885 94.5641 29.4359C93.1282 30.0513 91.2821 30.4616 89.1282 30.4616H76.9231L76.8205 30.359ZM82.2564 25.6411H88.4103C89.7436 25.6411 90.7692 25.3334 91.4872 24.6154C92.1026 23.7949 92.4103 22.9744 92.4103 21.9488C92.4103 20.9231 92.1026 19.8975 91.3846 19.2821C90.6667 18.5641 89.7436 18.2565 88.3077 18.2565H82.1538V25.6411H82.2564ZM82.2564 13.5385H88C89.3333 13.5385 90.2564 13.2308 90.8718 12.5129C91.4872 12 91.8974 11.1795 91.8974 10.1539C91.9068 9.70997 91.82 9.26928 91.643 8.86208C91.4659 8.45489 91.2028 8.09083 90.8718 7.79492C90.2564 7.07697 89.3333 6.76927 88 6.76927H82.2564V13.5385ZM104.41 30.359C104.154 30.3833 103.897 30.31 103.692 30.1539C103.602 30.0396 103.537 29.9073 103.501 29.7658C103.466 29.6243 103.461 29.4769 103.487 29.3334V10.359C103.487 10.1539 103.487 9.8462 103.692 9.64107C103.897 9.43594 104.205 9.33338 104.41 9.33338H108.41C108.615 9.33338 108.923 9.43594 109.128 9.64107C109.333 9.8462 109.436 10.1539 109.436 10.359V12C110.051 11.1795 110.872 10.4616 111.897 10.0513C112.923 9.64107 113.949 9.33338 115.282 9.33338H117.026C117.333 9.33338 117.538 9.43594 117.744 9.64107C117.949 9.8462 118.051 10.0513 118.051 10.359V13.8462C118.051 14.1539 117.949 14.359 117.744 14.5641C117.554 14.7574 117.296 14.868 117.026 14.8718H113.538C112.308 14.8718 111.385 15.1795 110.667 15.8975C110.051 16.5129 109.641 17.4359 109.641 18.6667V29.3334C109.641 29.6411 109.641 29.9488 109.436 30.1539C109.231 30.31 108.975 30.3833 108.718 30.359H104.41ZM126.872 30.7693C125.436 30.7693 124.205 30.5641 122.974 29.9488C121.913 29.4276 120.997 28.6526 120.308 27.6924C119.59 26.7693 119.282 25.6411 119.282 24.6154C119.282 22.5641 120.103 21.1283 121.641 20C123.179 18.9744 125.231 18.1539 127.795 17.7436L133.026 17.0257V16.3077C133.026 15.2821 132.821 14.4616 132.308 13.8462C131.795 13.3334 130.974 13.0257 129.744 13.0257C128.923 13.0257 128.205 13.2308 127.692 13.5385C127.077 13.8462 126.667 14.359 126.359 14.8718C126.266 15.033 126.131 15.1658 125.969 15.2562C125.806 15.3465 125.622 15.3909 125.436 15.3847H121.641C121.333 15.3847 121.128 15.3847 120.923 15.1795C120.849 15.0963 120.792 14.9988 120.757 14.893C120.722 14.7872 120.709 14.6753 120.718 14.5641C120.718 14.0513 120.923 13.5385 121.231 12.9231C121.641 12.3077 122.154 11.6924 122.872 11.077C123.59 10.4616 124.513 10.0513 125.641 9.53851C126.769 9.12825 128.205 8.92312 129.744 8.92312C131.487 8.92312 132.923 9.12825 134.154 9.53851C135.182 9.83929 136.125 10.3762 136.909 11.1063C137.692 11.8364 138.294 12.7395 138.667 13.7436C139.077 14.7693 139.282 15.7949 139.282 16.8206V29.3334C139.282 29.6411 139.179 29.9488 138.974 30.1539C138.769 30.31 138.513 30.3833 138.256 30.359H134.256C134 30.3833 133.744 30.31 133.538 30.1539C133.448 30.0396 133.383 29.9073 133.347 29.7658C133.312 29.6243 133.307 29.4769 133.333 29.3334V27.8975C132.452 29.1024 131.185 29.9707 129.744 30.359C128.923 30.6667 128 30.7693 126.872 30.7693ZM128.513 26.6667C129.333 26.6667 130.154 26.359 130.872 26.0513C131.59 25.6411 132.103 25.0257 132.513 24.3077C132.923 23.4872 133.128 22.5641 133.128 21.3334V20.6154L129.333 21.2308C127.897 21.5385 126.872 21.8462 126.256 22.2565C125.538 22.8718 125.231 23.3847 125.231 24.1026C125.231 24.6154 125.231 25.1283 125.641 25.4359C125.949 25.8462 126.359 26.1539 126.872 26.359L128.513 26.5641V26.6667ZM145.128 30.359C144.872 30.3833 144.615 30.31 144.41 30.1539C144.302 30.0483 144.218 29.92 144.164 29.7782C144.111 29.6363 144.09 29.4844 144.103 29.3334V10.359C144.103 10.0513 144.205 9.8462 144.41 9.64107C144.615 9.43594 144.821 9.33338 145.128 9.33338H149.026C149.333 9.33338 149.641 9.43594 149.846 9.64107L150.051 10.359V12C150.863 10.9966 151.897 10.1961 153.072 9.66197C154.247 9.12788 155.531 8.87491 156.821 8.92312C158.462 8.92312 159.897 9.33338 160.923 10.0513C162.166 10.767 163.166 11.8387 163.795 13.1283C164.513 14.5641 164.821 16.2052 164.821 18.0513V29.3334C164.821 29.6411 164.821 29.9488 164.513 30.1539C164.335 30.287 164.119 30.359 163.897 30.359H159.59C159.333 30.3833 159.077 30.31 158.872 30.1539C158.763 30.0483 158.679 29.92 158.626 29.7782C158.573 29.6363 158.552 29.4844 158.564 29.3334V18.4616C158.564 17.0257 158.256 15.8975 157.538 15.1795C156.821 14.359 155.897 13.9488 154.462 13.9488C153.231 13.9488 152.205 14.359 151.487 15.1795C150.769 15.8975 150.359 17.0257 150.359 18.4616V29.4359C150.359 29.7436 150.359 30.0513 150.051 30.2565C149.874 30.3896 149.658 30.4616 149.436 30.4616H145.128V30.359ZM177.436 30.7693C176.205 30.7693 174.974 30.5641 173.949 30.1539C172.923 29.7436 171.897 29.1283 171.282 28.2052C170.538 27.2974 169.98 26.2518 169.641 25.1283C169.112 23.4369 168.869 21.6689 168.923 19.8975V18.4616C168.923 17.1283 169.231 15.7949 169.538 14.6667C169.949 13.5385 170.564 12.5129 171.179 11.5898C171.905 10.7418 172.818 10.0746 173.846 9.64107C174.872 9.23081 176.205 8.92312 177.538 8.92312C178.774 8.88904 180.001 9.13447 181.128 9.64107C182.073 10.0713 182.912 10.7012 183.59 11.4872V2.66671C183.59 2.35902 183.692 2.15389 183.897 1.94876C184.103 1.74363 184.308 1.64107 184.615 1.64107H188.718C189.026 1.64107 189.231 1.74363 189.436 1.94876C189.641 2.15389 189.744 2.35902 189.744 2.66671V29.3334C189.744 29.6411 189.744 29.9488 189.436 30.1539C189.258 30.287 189.042 30.359 188.821 30.359H184.923C184.667 30.3833 184.41 30.31 184.205 30.1539C184.096 30.0483 184.012 29.92 183.959 29.7782C183.906 29.6363 183.885 29.4844 183.897 29.3334V28C183.19 28.8496 182.318 29.5473 181.333 30.0513C180.308 30.5641 179.077 30.7693 177.538 30.7693H177.436ZM179.487 25.9488C180.41 25.9488 181.231 25.7436 181.744 25.2308C182.359 24.8206 182.769 24.2052 183.077 23.4872C183.385 22.7693 183.59 22.0513 183.59 21.2308C183.696 20.2079 183.696 19.1768 183.59 18.1539C183.59 17.4359 183.385 16.718 183.077 16.1026C182.769 15.4872 182.359 14.8718 181.744 14.4616C181.128 14.0513 180.41 13.8462 179.385 13.8462C178.359 13.8462 177.538 14.0513 176.923 14.4616C176.41 14.9744 175.897 15.4872 175.692 16.2052C174.994 18.5823 174.994 21.1101 175.692 23.4872C175.897 24.2052 176.41 24.8206 176.923 25.3334C177.658 25.7935 178.52 26.0089 179.385 25.9488H179.487Z" fill="#E2E2E2"/>
</g>
<defs>
<clipPath id="clip0_0_116">
<rect width="189.744" height="40" fill="white"/>
</clipPath>
</defs>
</svg>
