<svg width="179" height="40" viewBox="0 0 179 40" fill="none" xmlns="http://www.w3.org/2000/svg">
<g clip-path="url(#clip0_0_117)">
<mask id="mask0_0_117" style="mask-type:luminance" maskUnits="userSpaceOnUse" x="0" y="0" width="179" height="40">
<path d="M178.667 0H0V40H178.667V0Z" fill="white"/>
</mask>
<g mask="url(#mask0_0_117)">
<path d="M15.8564 8.21887C12.7198 8.22903 9.65646 9.17078 7.05362 10.9251C4.45078 12.6794 2.42519 15.1676 1.2328 18.0753C0.0403968 20.9829 -0.265299 24.1796 0.354331 27.2613C0.973962 30.3431 2.49111 33.1716 4.71408 35.3895C6.93706 37.6075 9.7661 39.1152 12.8437 39.7223C15.9213 40.3293 19.1095 40.0085 22.0053 38.8003C24.9011 37.5921 27.3745 35.5508 29.1132 32.9343C30.8519 30.3177 31.7777 27.2433 31.7736 24.0997C31.7723 22.0085 31.3592 19.9381 30.5579 18.0073C29.7567 16.0765 28.5829 14.3232 27.1043 12.8478C25.6255 11.3725 23.8708 10.2041 21.9407 9.4098C20.0105 8.61547 17.9429 8.21076 15.8564 8.21887ZM20.4993 31.2081C19.3108 31.2116 18.1405 30.9148 17.0965 30.3452L16.8608 30.2117C16.9444 30.1417 17.0231 30.0661 17.0965 29.9857C17.5901 29.5048 18.0207 28.9628 18.3777 28.3729C19.1044 28.7388 19.9123 28.9124 20.7247 28.8769C21.5371 28.8415 22.3269 28.5983 23.0191 28.1705C23.7113 27.7427 24.2827 27.1445 24.6791 26.4329C25.0753 25.7213 25.2835 24.9199 25.2835 24.1048C25.2835 23.2899 25.0753 22.4884 24.6791 21.7768C24.2827 21.0652 23.7113 20.4669 23.0191 20.0392C22.3269 19.6113 21.5371 19.3683 20.7247 19.3328C19.9123 19.2973 19.1044 19.4708 18.3777 19.8368C18.0331 20.0055 17.7125 20.2196 17.4245 20.4736L17.0965 20.7715V28.2395C16.5201 29.0328 15.792 29.7032 14.9544 30.2117L14.7187 30.3452C13.6788 30.9157 12.5116 31.2125 11.3262 31.2081C9.44514 31.2081 7.64112 30.4592 6.311 29.1261C4.9809 27.7931 4.23364 25.9849 4.23364 24.0997C4.23364 22.2144 4.9809 20.4064 6.311 19.0733C7.64112 17.7403 9.44514 16.9913 11.3262 16.9913C12.5125 16.99 13.6799 17.2904 14.7187 17.8645C14.8007 17.9028 14.8795 17.9475 14.9544 17.998L14.7187 18.224C14.2313 18.7079 13.8047 19.2495 13.4479 19.8368C12.7212 19.4708 11.9133 19.2973 11.1008 19.3328C10.2884 19.3683 9.49858 19.6113 8.80643 20.0392C8.11428 20.4669 7.54286 21.0652 7.14651 21.7768C6.75018 22.4884 6.54211 23.2899 6.54211 24.1048C6.54211 24.9199 6.75018 25.7213 7.14651 26.4329C7.54286 27.1445 8.11428 27.7427 8.80643 28.1705C9.49858 28.5983 10.2884 28.8415 11.1008 28.8769C11.9133 28.9124 12.7212 28.7388 13.4479 28.3729C13.7724 28.1971 14.0752 27.9832 14.3497 27.7361C14.4625 27.6436 14.5649 27.5409 14.6675 27.4381V19.9805C15.0095 19.502 15.4088 19.0673 15.8564 18.6863C16.1519 18.4273 16.4709 18.1969 16.8096 17.998L17.0453 17.8645C17.9939 17.3479 19.0475 17.0549 20.126 17.0083C21.2045 16.9616 22.2795 17.1621 23.2689 17.5949C24.2583 18.0276 25.1361 18.6809 25.8355 19.5052C26.5348 20.3295 27.0371 21.3028 27.3043 22.3511C27.5713 23.3993 27.5961 24.4949 27.3768 25.5543C27.1575 26.6137 26.6997 27.6089 26.0385 28.4641C25.3773 29.3193 24.53 30.012 23.5612 30.4893C22.5924 30.9665 21.5276 31.216 20.4481 31.2184" fill="#E2E2E2"/>
<path d="M52.0039 15.6044C53.6991 15.5701 55.3564 16.1093 56.7084 17.1349C57.3255 17.5711 57.8493 18.1265 58.2489 18.7687C58.6485 19.4108 58.9157 20.1267 59.0349 20.874H64.0572C63.7499 18.1944 62.4736 15.7204 60.4699 13.9197C58.42 11.9474 55.4067 10.9613 51.6041 10.9613C49.8831 10.8976 48.1685 11.206 46.5768 11.8653C44.9852 12.5247 43.5537 13.5196 42.3797 14.7825C39.9499 17.4817 38.6603 21.0208 38.7823 24.6541C38.6359 28.3236 39.9017 31.9091 42.3183 34.6696C43.4796 35.9548 44.9064 36.9707 46.4996 37.6467C48.0927 38.3225 49.8137 38.6421 51.5427 38.5833C53.3496 38.6127 55.1461 38.3061 56.8416 37.6793C58.2707 37.1719 59.5645 36.3424 60.6236 35.2551C61.5299 34.2957 62.2865 33.2049 62.8683 32.0193C63.4088 30.8845 63.7816 29.6768 63.9752 28.4344H59.0349C58.6561 29.9415 57.7915 31.2812 56.5751 32.2453C55.3043 33.2937 53.7008 33.8512 52.0552 33.8169C50.9817 33.8639 49.912 33.6621 48.9291 33.2275C47.946 32.7928 47.0763 32.1368 46.3872 31.3105C44.9353 29.4069 44.2085 27.0468 44.3373 24.6541C44.2108 22.2777 44.9381 19.9344 46.3872 18.0492C47.0761 17.2308 47.944 16.5827 48.9235 16.1551C49.9029 15.7275 50.9676 15.532 52.0347 15.5839" fill="#E2E2E2"/>
<path d="M81.9948 10.9605C80.2919 10.9595 78.6069 11.3091 77.0444 11.9877C75.5477 12.5979 74.2216 13.5639 73.1804 14.8023V0H67.4612V38.3153H73.1496V21.7668C73.1395 20.9415 73.3325 20.1264 73.7115 19.3936C74.0904 18.6608 74.6437 18.0329 75.3224 17.5655C76.8035 16.4692 78.6065 15.8983 80.4472 15.9425C82.0017 15.8452 83.5313 16.3697 84.7007 17.4011C85.2303 17.9391 85.6401 18.5835 85.9033 19.2916C86.1665 19.9999 86.2771 20.7559 86.2277 21.51V38.3153H91.9367V20.8525C92.0053 19.5335 91.8023 18.2144 91.3404 16.9773C90.8784 15.7403 90.1673 14.6117 89.2513 13.662C88.2839 12.7478 87.1431 12.0376 85.8965 11.5735C84.65 11.1094 83.3232 10.901 81.9948 10.9605Z" fill="#E2E2E2"/>
<path d="M108.642 11.0127C106.894 10.924 105.148 11.2233 103.529 11.8892C101.909 12.5551 100.457 13.5711 99.2744 14.8647C96.9231 17.6119 95.6996 21.151 95.8511 24.7671C95.7252 28.3895 96.9824 31.9236 99.3667 34.649C100.528 35.9328 101.956 36.9472 103.549 37.6215C105.142 38.2956 106.863 38.6134 108.591 38.5524C112.007 38.5524 114.703 37.6999 116.678 35.9947C118.499 34.4639 119.725 32.3406 120.142 29.9956H115.53C115.024 31.2915 114.096 32.3776 112.896 33.0774C111.576 33.8382 110.073 34.2219 108.55 34.1867C106.666 34.1668 104.865 33.4114 103.528 32.081C102.042 30.6008 101.198 28.5927 101.181 26.4928H120.747C120.819 25.8931 120.849 25.289 120.839 24.685C120.839 20.576 119.742 17.265 117.549 14.7518C116.43 13.5103 115.052 12.5315 113.512 11.8851C111.973 11.2388 110.31 10.9409 108.642 11.0127ZM101.293 22.4662C101.49 20.5459 102.307 18.7426 103.62 17.33C104.275 16.6971 105.052 16.2048 105.903 15.8834C106.754 15.5619 107.662 15.418 108.571 15.4606C109.465 15.417 110.358 15.5616 111.193 15.8855C112.028 16.2092 112.786 16.7048 113.419 17.3403C114.696 18.7614 115.464 20.5687 115.602 22.4764L101.293 22.4662Z" fill="#E2E2E2"/>
<path d="M136.983 15.6039C138.679 15.5696 140.336 16.1088 141.688 17.1344C142.303 17.5721 142.825 18.1281 143.225 18.77C143.624 19.4119 143.893 20.1269 144.015 20.8735H149.027C148.715 18.1904 147.431 15.7153 145.419 13.9192C143.32 11.947 140.361 10.9608 136.543 10.9608C134.821 10.8992 133.107 11.2084 131.516 11.8676C129.925 12.5269 128.493 13.5207 127.318 14.7821C124.904 17.4888 123.626 21.0253 123.751 24.6537C123.603 28.3251 124.874 31.9123 127.297 34.6691C128.458 35.9548 129.885 36.9711 131.478 37.6471C133.072 38.3231 134.793 38.6424 136.521 38.5828C138.332 38.6132 140.132 38.3067 141.831 37.6788C143.26 37.1713 144.553 36.342 145.613 35.2547C146.519 34.2952 147.276 33.2044 147.857 32.0188C148.399 30.884 148.771 29.6764 148.964 28.4339H143.993C143.615 29.9411 142.751 31.2807 141.533 32.2448C140.032 33.4075 138.147 33.9573 136.256 33.784C134.367 33.6105 132.612 32.7267 131.346 31.3101C129.894 29.4065 129.167 27.0463 129.296 24.6537C129.174 22.2777 129.901 19.936 131.346 18.0487C132.037 17.2301 132.907 16.582 133.888 16.1544C134.869 15.7269 135.935 15.5315 137.004 15.5833" fill="#E2E2E2"/>
<path d="M171.409 38.3153H178.665L166.161 21.2635L176.605 10.9605H169.349L158.947 21.3456V0H153.257V38.3153H158.947V28.3821L162.236 25.1259L171.409 38.3153Z" fill="#E2E2E2"/>
</g>
</g>
<defs>
<clipPath id="clip0_0_117">
<rect width="178.667" height="40" fill="white"/>
</clipPath>
</defs>
</svg>
