<svg width="214" height="40" viewBox="0 0 214 40" fill="none" xmlns="http://www.w3.org/2000/svg">
<g clip-path="url(#clip0_0_118)">
<path d="M11.2128 30.0887L11.1723 30.1282C7.85303 30.1282 5.15439 29.1674 3.07644 27.2458C1.02548 25.3241 0 22.8627 0 19.8617C0 16.8345 1.03897 14.3731 3.11692 12.4777C5.19487 10.5561 7.88001 9.59521 11.1723 9.59521C13.79 9.59521 16.0164 10.2138 17.8515 11.4511C19.7135 12.6883 20.9413 14.3599 21.5351 16.4659H16.1108C15.6521 15.6498 14.9909 15.0049 14.1273 14.531C13.2638 14.0309 12.2788 13.7807 11.1723 13.7807C9.44521 13.7807 8.01495 14.3467 6.88152 15.4787C5.77508 16.6106 5.22185 18.0585 5.22185 19.8222C5.22185 21.5859 5.77508 23.0338 6.88152 24.1658C8.01495 25.2977 9.4722 25.8637 11.2533 25.8637C13.0614 25.8637 14.4916 25.2846 15.5441 24.1263C16.6236 22.9417 17.0688 21.4281 16.88 19.5853H22.1423C22.3312 22.6917 21.4001 25.2187 19.3492 27.1667C17.2983 29.1147 14.5861 30.0887 11.2128 30.0887Z" fill="#E2E2E2"/>
<path d="M36.2368 30.0888C32.9444 30.0888 30.2457 29.128 28.1408 27.2063C26.0359 25.2847 24.9835 22.8233 24.9835 19.8223C24.9835 16.8213 26.0359 14.36 28.1408 12.4383C30.2457 10.5166 32.9444 9.55579 36.2368 9.55579C39.5021 9.55579 42.1872 10.5166 44.2921 12.4383C46.3971 14.36 47.4496 16.8213 47.4496 19.8223C47.4496 22.8233 46.3971 25.2847 44.2921 27.2063C42.1872 29.128 39.5021 30.0888 36.2368 30.0888ZM31.8245 24.2053C32.9849 25.3373 34.4556 25.9032 36.2368 25.9032C38.0179 25.9032 39.4885 25.3373 40.6491 24.2053C41.8095 23.0471 42.3896 21.586 42.3896 19.8223C42.3896 18.0585 41.8095 16.6107 40.6491 15.4788C39.4885 14.3205 38.0179 13.7413 36.2368 13.7413C34.4556 13.7413 32.9849 14.3205 31.8245 15.4788C30.6911 16.6107 30.1244 18.0585 30.1244 19.8223C30.1244 21.586 30.6911 23.0471 31.8245 24.2053Z" fill="#E2E2E2"/>
<path d="M56.966 5.84403C56.2375 6.47581 55.3199 6.79171 54.2135 6.79171C53.1069 6.79171 52.176 6.47581 51.4204 5.84403C50.6917 5.18592 50.3273 4.36985 50.3273 3.39585C50.3273 2.42185 50.6917 1.61896 51.4204 0.987165C52.176 0.329055 53.1069 0 54.2135 0C55.3199 0 56.2375 0.329055 56.966 0.987165C57.7216 1.61896 58.0995 2.42185 58.0995 3.39585C58.0995 4.36985 57.7216 5.18592 56.966 5.84403ZM51.6632 29.694V9.95064H56.7232V29.694H51.6632Z" fill="#E2E2E2"/>
<path d="M74.2252 9.55579H74.1847C76.5325 9.55579 78.3945 10.2665 79.7708 11.6881C81.1472 13.1096 81.8353 15.0576 81.8353 17.5321V29.694H76.6944V18.4403C76.6944 16.9924 76.3031 15.8605 75.5205 15.0444C74.7379 14.2284 73.6449 13.8204 72.2417 13.8204C70.6765 13.8204 69.4351 14.3205 68.5176 15.3208C67.6 16.3212 67.1412 17.69 67.1412 19.4275V29.7335H62.0813V9.99015H67.1412V13.8599H67.1817C68.4231 10.9905 70.7709 9.55579 74.2252 9.55579Z" fill="#E2E2E2"/>
<path d="M99.3858 9.55579V9.63476C102.219 9.63476 104.581 10.6088 106.47 12.5568C108.386 14.5048 109.344 16.9529 109.344 19.9013C109.344 22.8233 108.386 25.2583 106.47 27.2063C104.581 29.1543 102.219 30.1283 99.3858 30.1283C97.7126 30.1283 96.2283 29.7597 94.933 29.0227C93.6647 28.2593 92.6931 27.1932 92.0184 25.8243H91.9375V40H86.8776V9.99015H91.9375V13.8993H92.0184C92.6931 12.5305 93.6647 11.4643 94.933 10.7009C96.2283 9.93749 97.7126 9.55579 99.3858 9.55579ZM97.9284 25.9428V25.9823C99.7365 25.9823 101.221 25.4163 102.381 24.2843C103.542 23.1524 104.122 21.7045 104.122 19.9408C104.122 18.2033 103.542 16.7687 102.381 15.6367C101.221 14.5048 99.7365 13.9388 97.9284 13.9388C96.1204 13.9388 94.6361 14.5048 93.4757 15.6367C92.3153 16.7687 91.7351 18.2033 91.7351 19.9408C91.7351 21.6781 92.3153 23.1128 93.4757 24.2448C94.6361 25.3768 96.1204 25.9428 97.9284 25.9428Z" fill="#E2E2E2"/>
<path d="M125.053 9.55572L125.013 9.51624C125.364 9.51624 125.62 9.5294 125.782 9.55572V14.4521H124.77C120.479 14.4521 118.334 16.9923 118.334 22.073V29.6939H113.274V9.95058H118.131V15.7551H118.172C119.197 11.6222 121.491 9.55572 125.053 9.55572Z" fill="#E2E2E2"/>
<path d="M138.78 30.0888C135.487 30.0888 132.789 29.128 130.684 27.2063C128.579 25.2847 127.526 22.8233 127.526 19.8223C127.526 16.8213 128.579 14.36 130.684 12.4383C132.789 10.5166 135.487 9.55579 138.78 9.55579C142.045 9.55579 144.731 10.5166 146.835 12.4383C148.94 14.36 149.992 16.8213 149.992 19.8223C149.992 22.8233 148.94 25.2847 146.835 27.2063C144.731 29.128 142.045 30.0888 138.78 30.0888ZM134.367 24.2053C135.528 25.3373 136.999 25.9032 138.78 25.9032C140.56 25.9032 142.032 25.3373 143.192 24.2053C144.352 23.0471 144.932 21.586 144.932 19.8223C144.932 18.0585 144.352 16.6107 143.192 15.4788C142.032 14.3205 140.56 13.7413 138.78 13.7413C136.999 13.7413 135.528 14.3205 134.367 15.4788C133.234 16.6107 132.667 18.0585 132.667 19.8223C132.667 21.586 133.234 23.0471 134.367 24.2053Z" fill="#E2E2E2"/>
<path d="M164.74 5.17275H164.659C163.148 5.17275 162.123 5.48866 161.583 6.12044C161.043 6.75223 160.773 7.5946 160.773 8.64758V9.95064H167.209V14.0572H160.773V29.694H155.795V14.0572H152.071V9.95064H155.795V8.3317C155.795 5.98882 156.496 4.15927 157.899 2.84304C159.329 1.5005 161.313 0.829224 163.849 0.829224C165.064 0.829224 166.197 0.974008 167.249 1.26358V5.48866C166.332 5.27806 165.496 5.17275 164.74 5.17275Z" fill="#E2E2E2"/>
<path d="M176.269 5.84403C175.541 6.47581 174.624 6.79171 173.517 6.79171C172.411 6.79171 171.48 6.47581 170.724 5.84403C169.996 5.18592 169.631 4.36985 169.631 3.39585C169.631 2.42185 169.996 1.61896 170.724 0.987165C171.48 0.329055 172.411 0 173.517 0C174.624 0 175.541 0.329055 176.269 0.987165C177.025 1.61896 177.403 2.42185 177.403 3.39585C177.403 4.36985 177.025 5.18592 176.269 5.84403ZM170.967 29.694V9.95064H176.027V29.694H170.967Z" fill="#E2E2E2"/>
<path d="M181.673 29.694V1.26355H186.733V29.694H181.673Z" fill="#E2E2E2"/>
<path d="M207.491 21.5597H212.632C212.469 24.0869 211.391 26.1401 209.393 27.7195C207.423 29.2727 204.968 30.0493 202.025 30.0493C198.76 30.0493 196.089 29.0885 194.011 27.1667C191.96 25.2187 190.935 22.7311 190.935 19.7038C190.935 16.7291 191.947 14.2941 193.971 12.3988C196.021 10.4771 198.652 9.51624 201.864 9.51624C205.076 9.51624 207.625 10.4376 209.515 12.2803C211.431 14.123 212.335 16.5843 212.227 19.6643H195.832C195.86 21.5859 196.427 23.1127 197.533 24.2447C198.639 25.3503 200.096 25.9031 201.904 25.9031C203.443 25.9031 204.724 25.5083 205.751 24.7186C206.803 23.9026 207.383 22.8495 207.491 21.5597ZM201.783 13.1885C199.273 13.1885 197.519 14.1757 196.521 16.1499H206.843C206.007 14.1757 204.32 13.1885 201.783 13.1885Z" fill="#E2E2E2"/>
</g>
<defs>
<clipPath id="clip0_0_118">
<rect width="213.333" height="40" fill="white"/>
</clipPath>
</defs>
</svg>
