<svg width="80" height="80" viewBox="0 0 80 80" fill="none" xmlns="http://www.w3.org/2000/svg">
<circle cx="40" cy="40" r="40" fill="#470137"/>
<path d="M41.3612 26.9391L33.0387 41.0277L41.9428 55.9884C42.1279 56.3276 41.9428 56.4025 41.6744 56.4025H35.3208C34.8732 56.4025 34.56 56.3863 34.381 56.0801C33.784 54.887 33.1874 53.7015 32.5913 52.5236C31.9942 51.3461 31.3604 50.1453 30.6897 48.921C30.0186 47.6978 29.3548 46.4587 28.6986 45.2038C28.1015 46.4279 27.4378 47.6516 26.7969 48.8752C26.1552 50.0992 25.5213 51.3153 24.8953 52.5236C24.2689 53.7325 23.6276 54.9333 22.9714 56.126C22.8518 56.4014 22.6427 56.4298 22.3449 56.4298H16.215C15.9742 56.4298 15.9451 56.2487 16.0808 56.0342L24.7163 41.4866L16.3044 26.8931C16.1516 26.6849 16.2831 26.463 16.5282 26.4801H22.837C23.1102 26.4647 23.3516 26.5678 23.5082 26.8014C24.0452 28.0254 24.6418 29.2491 25.298 30.4727C25.9538 31.6967 26.6175 32.9052 27.2891 34.0981C27.9603 35.2913 28.624 36.4998 29.1908 37.7236C29.7871 36.4694 30.3911 35.2456 31.0029 34.0523C31.614 32.8591 32.2404 31.6582 32.8821 30.4497C33.5233 29.2415 34.1423 28.0407 34.739 26.8473C34.8183 26.5855 35.0078 26.4529 35.276 26.4801H41.1374C41.3612 26.4801 41.4537 26.7856 41.3612 26.9391Z" fill="#FF61F6"/>
<path d="M54.2024 56.9983C50.2563 57.0599 46.1231 55.4352 44.0455 51.8355C43.031 50.1074 42.5239 47.9429 42.5241 45.3419C42.5073 43.2357 43.032 41.1621 44.0455 39.3301C46.6603 34.656 51.928 32.9047 56.9317 33.3642V24.3236C56.9317 24.1099 57.0213 24.0024 57.2002 24.0024H62.8379C62.992 23.9798 63.1284 24.1197 63.1065 24.2777V51.3995C63.1065 52.5186 63.2173 53.6337 63.2854 54.7496C63.2964 54.9403 63.1861 55.1288 63.0169 55.2085C60.2313 56.4001 57.2174 56.9845 54.2024 56.9983ZM56.9317 51.3078V38.7794C52.845 37.644 48.8772 40.7568 48.8778 45.0665C48.7807 49.5223 52.6216 52.6006 56.9317 51.3078Z" fill="#FF61F6"/>
</svg>
