<svg width="80" height="80" viewBox="0 0 80 80" fill="none" xmlns="http://www.w3.org/2000/svg">
<circle cx="40" cy="40" r="40" fill="#330000"/>
<path d="M40.4734 49.4907H29.626L27.419 56.5224C27.3577 56.7836 27.1171 56.9687 26.8555 56.9559H21.3614C21.048 56.9559 20.9385 56.7793 21.0326 56.4261L30.4242 28.6845C30.5182 28.3956 30.6122 28.0665 30.7061 27.6972C30.8289 27.0546 30.8918 26.4015 30.8939 25.7467C30.867 25.5532 31.037 25.3823 31.2226 25.4095H38.6889C38.9077 25.4095 39.0329 25.4898 39.0646 25.6503L49.7243 56.4742C49.8181 56.7955 49.7242 56.9561 49.4424 56.9558H43.3378C43.1237 56.9802 42.9192 56.8334 42.8682 56.6187L40.4734 49.4907ZM31.3165 43.4222H38.7359C37.5169 39.2568 36.1412 35.1461 35.0263 30.9482C33.8233 35.1532 32.5108 39.3412 31.3165 43.4222Z" fill="#FF9A00"/>
<path d="M56.063 30.5146C55.584 30.5343 55.1064 30.4501 54.6614 30.2675C54.2163 30.0849 53.8139 29.808 53.4803 29.455C53.1476 29.0866 52.8893 28.6544 52.72 28.1833C52.5508 27.7122 52.474 27.2114 52.4941 26.7097C52.477 26.213 52.5623 25.7182 52.7443 25.2576C52.9264 24.797 53.2012 24.381 53.5506 24.0367C53.8968 23.696 54.3053 23.429 54.7526 23.2513C55.2 23.0736 55.6773 22.9886 56.1568 23.0012C57.2839 23.0012 58.1683 23.3464 58.81 24.0367C59.134 24.3955 59.3857 24.8162 59.5509 25.2749C59.7161 25.7336 59.7914 26.2211 59.7726 26.7097C59.7923 27.2134 59.713 27.7159 59.5396 28.1875C59.3661 28.6591 59.1021 29.0901 58.763 29.455C58.4087 29.8132 57.9859 30.0923 57.5212 30.2747C57.0565 30.457 56.56 30.5387 56.063 30.5146ZM52.8228 56.474V33.4524C52.8228 33.1635 52.9475 33.0189 53.1985 33.0189H58.9744C59.2246 33.0189 59.3498 33.1634 59.3501 33.4524V56.474C59.3501 56.7954 59.2248 56.9559 58.9744 56.9557H53.2455C52.9638 56.9557 52.8229 56.7951 52.8228 56.474Z" fill="#FF9A00"/>
</svg>
