<svg width="80" height="80" viewBox="0 0 80 80" fill="none" xmlns="http://www.w3.org/2000/svg">
<rect width="80" height="80" rx="40" fill="#222222"/>
<path d="M28.6075 23.5279L39.9234 22.3432L51.2393 23.5279L59.9999 35.1736L39.9234 58.3244L19.8468 35.1736L28.6075 23.5279Z" fill="#FDB300"/>
<path d="M27.9788 35.1735L39.9234 58.3243L19.8468 35.1735H27.9788Z" fill="#EA6C00"/>
<path d="M51.8679 35.1736L39.9233 58.3245L59.9999 35.1736H51.8679Z" fill="#EA6C00"/>
<path d="M27.9788 35.1736H51.868L39.9234 58.3245L27.9788 35.1736Z" fill="#FDAD00"/>
<path d="M39.9234 22.3432L28.6075 23.5278L27.9788 35.1735L39.9234 22.3432Z" fill="#FDD231"/>
<path d="M39.9233 22.3432L51.2392 23.5278L51.8679 35.1735L39.9233 22.3432Z" fill="#FDD231"/>
<path d="M60 35.1736L51.2392 23.5279L51.868 35.1736H60Z" fill="#FDAD00"/>
<path d="M19.8468 35.1736L28.6075 23.5279L27.9788 35.1736H19.8468Z" fill="#FDAD00"/>
<path d="M39.9234 22.3432L27.9788 35.1735H51.868L39.9234 22.3432Z" fill="#FEEEB7"/>
</svg>
