<svg width="80" height="80" viewBox="0 0 80 80" fill="none" xmlns="http://www.w3.org/2000/svg">
<circle cx="40" cy="40" r="40" fill="#001E36"/>
<path d="M19 54.2906V23.5085C19 23.2991 19.0875 23.1795 19.2917 23.1795C22.3057 23.1795 25.3184 23 28.3333 23C33.2254 23 38.5225 24.6727 40.3792 29.7906C40.8167 31.047 41.05 32.3333 41.05 33.6795C41.05 36.2521 40.4667 38.3761 39.3 40.0513C36.041 44.7308 30.3925 44.6581 25.3292 44.6581V54.2607C25.3688 54.545 25.1265 54.6795 24.8917 54.6795H19.35C19.1167 54.6795 19 54.5598 19 54.2906ZM25.3583 28.953V39.0043C27.366 39.1514 29.4668 39.1673 31.3958 38.5256C33.5254 37.9113 34.6917 36.0679 34.6917 33.859C34.7509 31.9767 33.7252 30.1707 31.9792 29.4915C30.0734 28.699 27.4155 28.6516 25.3583 28.953Z" fill="#31A8FF"/>
<path d="M59.2416 37.0184C58.3591 36.5534 57.4192 36.2131 56.4476 36.007C55.199 35.7132 50.2745 34.6843 50.2726 37.2592C50.3163 38.6968 52.5983 39.4011 53.6066 39.8118C57.1462 41.0271 61.1517 43.1993 61.073 47.566C61.1812 53.002 55.9143 55.1751 51.3996 55.1757C49.0492 55.2 46.6007 54.8359 44.4497 53.8271C44.2444 53.7183 44.1122 53.4859 44.121 53.2491V48.0476C44.0978 47.839 44.3217 47.6568 44.4967 47.8068C46.6042 49.0814 49.1023 49.7002 51.5404 49.7333C52.6167 49.7333 54.7498 49.6289 54.7336 48.0476C54.7336 46.53 52.1819 45.8323 51.1647 45.4468C49.6903 44.9204 48.2922 44.1914 47.0089 43.2795C45.2155 42.0003 44.0904 39.9492 44.121 37.6927C44.1105 32.5742 48.9587 30.2768 53.3249 30.2757C55.366 30.2589 57.5579 30.41 59.458 31.2389C59.7312 31.3194 59.7878 31.6071 59.7867 31.865V36.7294C59.804 37.0314 59.4686 37.1342 59.2416 37.0184Z" fill="#31A8FF"/>
</svg>
