<svg width="80" height="80" viewBox="0 0 80 80" fill="none" xmlns="http://www.w3.org/2000/svg">
<circle cx="40" cy="40" r="40" fill="#49021F"/>
<path d="M29.4802 25.9888V56.6681C29.4802 56.9895 29.3394 57.15 29.0577 57.1498H23.3756C23.1248 57.1498 22.9996 56.9893 23 56.6681V25.9888C23 25.7321 23.1409 25.6037 23.4225 25.6034H29.1045C29.3201 25.572 29.5108 25.7677 29.4802 25.9888Z" fill="#FF3366"/>
<path d="M46.2914 57.6313C44.13 57.665 41.9884 57.2043 40.0224 56.2827C35.8485 54.3014 34.0348 49.9163 34.0353 45.398C33.9992 40.8909 36.3864 36.5963 40.2807 34.4651C42.969 32.9379 46.1312 32.5499 49.1558 32.8277V23.3397C49.1558 23.1154 49.2498 23.0025 49.4376 23.0025H55.3543C55.516 22.9788 55.6591 23.1256 55.6361 23.2914V51.7555C55.6361 52.9299 55.7525 54.1001 55.824 55.2713C55.8355 55.4714 55.7197 55.6692 55.5421 55.7529C54.0157 56.4059 52.4258 56.8902 50.7994 57.1978C49.3123 57.4793 47.8036 57.6244 46.2914 57.6313ZM49.1558 51.6591V38.5108C44.8863 37.3245 40.7027 40.5843 40.7033 45.109C40.6001 49.8477 44.8252 52.9582 49.1558 51.6591Z" fill="#FF3366"/>
</svg>
