<svg width="142" height="36" viewBox="0 0 142 36" fill="none" xmlns="http://www.w3.org/2000/svg">
<path d="M52.456 33H50.44V15H52.456V17.052C52.864 16.348 53.408 15.78 54.088 15.348C54.768 14.908 55.576 14.688 56.512 14.688C57.384 14.688 58.2 14.852 58.96 15.18C59.728 15.508 60.4 15.964 60.976 16.548C61.552 17.124 62.004 17.792 62.332 18.552C62.66 19.312 62.824 20.128 62.824 21C62.824 21.872 62.66 22.692 62.332 23.46C62.004 24.228 61.552 24.904 60.976 25.488C60.4 26.064 59.728 26.516 58.96 26.844C58.2 27.172 57.384 27.336 56.512 27.336C55.576 27.336 54.768 27.12 54.088 26.688C53.408 26.248 52.864 25.676 52.456 24.972V33ZM56.488 16.644C55.712 16.644 55.032 16.84 54.448 17.232C53.864 17.624 53.412 18.148 53.092 18.804C52.78 19.46 52.624 20.192 52.624 21C52.624 21.8 52.78 22.532 53.092 23.196C53.412 23.86 53.86 24.388 54.436 24.78C55.02 25.172 55.704 25.368 56.488 25.368C57.264 25.368 57.976 25.176 58.624 24.792C59.272 24.4 59.792 23.876 60.184 23.22C60.576 22.556 60.772 21.816 60.772 21C60.772 20.2 60.58 19.472 60.196 18.816C59.812 18.152 59.296 17.624 58.648 17.232C58 16.84 57.28 16.644 56.488 16.644ZM70.0403 27.312C68.9363 27.312 67.9283 27.028 67.0163 26.46C66.1123 25.892 65.3883 25.132 64.8443 24.18C64.3083 23.22 64.0403 22.16 64.0403 21C64.0403 20.12 64.1963 19.3 64.5083 18.54C64.8203 17.772 65.2483 17.1 65.7923 16.524C66.3443 15.94 66.9843 15.484 67.7123 15.156C68.4403 14.828 69.2163 14.664 70.0403 14.664C71.1443 14.664 72.1483 14.948 73.0523 15.516C73.9643 16.084 74.6883 16.848 75.2243 17.808C75.7683 18.768 76.0403 19.832 76.0403 21C76.0403 21.872 75.8843 22.688 75.5723 23.448C75.2603 24.208 74.8283 24.88 74.2763 25.464C73.7323 26.04 73.0963 26.492 72.3683 26.82C71.6483 27.148 70.8723 27.312 70.0403 27.312ZM70.0403 25.296C70.7923 25.296 71.4683 25.1 72.0683 24.708C72.6763 24.308 73.1523 23.784 73.4963 23.136C73.8483 22.48 74.0243 21.768 74.0243 21C74.0243 20.216 73.8443 19.496 73.4843 18.84C73.1323 18.184 72.6563 17.66 72.0563 17.268C71.4563 16.876 70.7843 16.68 70.0403 16.68C69.2883 16.68 68.6123 16.88 68.0123 17.28C67.4123 17.672 66.9363 18.196 66.5843 18.852C66.2323 19.508 66.0563 20.224 66.0563 21C66.0563 21.8 66.2363 22.528 66.5963 23.184C66.9563 23.832 67.4403 24.348 68.0483 24.732C68.6563 25.108 69.3203 25.296 70.0403 25.296ZM78.0259 27V15H80.0419V16.5C80.4659 15.94 81.0019 15.496 81.6499 15.168C82.2979 14.832 83.0019 14.664 83.7619 14.664C84.2259 14.664 84.6739 14.724 85.1059 14.844L84.2899 16.86C83.9619 16.756 83.6419 16.704 83.3299 16.704C82.7299 16.704 82.1779 16.852 81.6739 17.148C81.1779 17.436 80.7819 17.828 80.4859 18.324C80.1899 18.82 80.0419 19.372 80.0419 19.98V27H78.0259ZM93.0076 17.016H90.2836L90.2716 27H88.2556L88.2676 17.016H86.2036V15H88.2676L88.2556 11.232H90.2716L90.2836 15H93.0076V17.016ZM95.1588 27L98.4108 10.2H99.9588L104.495 22.128L109.019 10.2H110.567L113.831 27H111.779L109.415 14.808L105.155 26.088H103.823L99.5628 14.808L97.2108 27H95.1588ZM125.315 15H127.331V27H125.315L125.231 24.972C124.855 25.668 124.335 26.232 123.671 26.664C123.015 27.096 122.231 27.312 121.319 27.312C120.439 27.312 119.615 27.148 118.847 26.82C118.079 26.484 117.399 26.024 116.807 25.44C116.223 24.848 115.767 24.168 115.439 23.4C115.111 22.632 114.947 21.804 114.947 20.916C114.947 20.06 115.107 19.252 115.427 18.492C115.747 17.732 116.191 17.068 116.759 16.5C117.335 15.924 117.999 15.476 118.751 15.156C119.503 14.828 120.311 14.664 121.175 14.664C122.119 14.664 122.947 14.888 123.659 15.336C124.371 15.776 124.947 16.348 125.387 17.052L125.315 15ZM121.283 25.356C122.075 25.356 122.759 25.164 123.335 24.78C123.919 24.388 124.367 23.86 124.679 23.196C124.999 22.532 125.159 21.8 125.159 21C125.159 20.184 124.999 19.448 124.679 18.792C124.359 18.128 123.907 17.604 123.323 17.22C122.747 16.828 122.067 16.632 121.283 16.632C120.491 16.632 119.771 16.828 119.123 17.22C118.475 17.612 117.959 18.14 117.575 18.804C117.199 19.46 117.011 20.192 117.011 21C117.011 21.808 117.207 22.544 117.599 23.208C117.991 23.864 118.511 24.388 119.159 24.78C119.807 25.164 120.515 25.356 121.283 25.356ZM140.337 19.536V27H138.321V19.98C138.321 19.372 138.173 18.82 137.877 18.324C137.581 17.828 137.185 17.436 136.689 17.148C136.193 16.852 135.641 16.704 135.033 16.704C134.433 16.704 133.881 16.852 133.377 17.148C132.881 17.436 132.485 17.828 132.189 18.324C131.893 18.82 131.745 19.372 131.745 19.98V27H129.729V15H131.745V16.5C132.169 15.94 132.705 15.496 133.353 15.168C134.001 14.832 134.705 14.664 135.465 14.664C136.361 14.664 137.177 14.884 137.913 15.324C138.657 15.756 139.245 16.34 139.677 17.076C140.117 17.812 140.337 18.632 140.337 19.536Z" fill="#222222"/>
<path fill-rule="evenodd" clip-rule="evenodd" d="M27.6923 2.76923H15.2308C13.7014 2.76923 12.4616 4.00906 12.4616 5.53846V19.3846H27.6923C32.2805 19.3846 36 15.6651 36 11.0769C36 6.48871 32.2805 2.76923 27.6923 2.76923ZM15.2308 0C12.172 0 9.69232 2.47965 9.69232 5.53846V22.1538H27.6923C33.8099 22.1538 38.7692 17.1945 38.7692 11.0769C38.7692 4.95931 33.8099 0 27.6923 0H15.2308Z" fill="#222222"/>
<path fill-rule="evenodd" clip-rule="evenodd" d="M9.69219 30.4617L9.6922 22.154L5.53835 22.154C4.00895 22.154 2.76912 23.3938 2.76912 24.9232L2.76912 30.4617C2.76912 31.9911 4.00895 33.2309 5.53835 33.2309L6.92296 33.2309C8.45237 33.2309 9.69219 31.9911 9.69219 30.4617ZM12.4614 19.3848L5.53835 19.3848C2.47954 19.3848 -0.000110735 21.8644 -0.000110868 24.9232L-0.00011111 30.4617C-0.000111244 33.5205 2.47954 36.0002 5.53835 36.0002L6.92296 36.0002C9.98177 36.0002 12.4614 33.5205 12.4614 30.4617L12.4614 19.3848Z" fill="#222222"/>
<path d="M17.2307 7L27.0769 7C29.286 7 31.0769 8.79086 31.0769 11V11.3077C31.0769 13.5168 29.286 15.3077 27.0769 15.3077H17.2307L17.2307 7Z" fill="#7D5FF9"/>
</svg>
